<?xml version="1.0" encoding="UTF-8" standalone="no"?>
<!-- Created with Inkscape (http://www.inkscape.org/) -->

<svg
   xmlns:dc="http://purl.org/dc/elements/1.1/"
   xmlns:cc="http://creativecommons.org/ns#"
   xmlns:rdf="http://www.w3.org/1999/02/22-rdf-syntax-ns#"
   xmlns:svg="http://www.w3.org/2000/svg"
   xmlns="http://www.w3.org/2000/svg"
   xmlns:sodipodi="http://sodipodi.sourceforge.net/DTD/sodipodi-0.dtd"
   xmlns:inkscape="http://www.inkscape.org/namespaces/inkscape"
   version="1.1"
   width="237.67107"
   height="101.27847"
   id="svg2"
   xml:space="preserve"
   inkscape:version="0.48.4 r9939"
   sodipodi:docname="Exp_Prf_2c_Pos.svg"><sodipodi:namedview
     pagecolor="#ffffff"
     bordercolor="#666666"
     borderopacity="1"
     objecttolerance="10"
     gridtolerance="10"
     guidetolerance="10"
     inkscape:pageopacity="0"
     inkscape:pageshadow="2"
     inkscape:window-width="1440"
     inkscape:window-height="837"
     id="namedview18"
     showgrid="false"
     fit-margin-top="0"
     fit-margin-left="0"
     fit-margin-right="0"
     fit-margin-bottom="0"
     inkscape:zoom="5.1101676"
     inkscape:cx="106.39985"
     inkscape:cy="139.96262"
     inkscape:window-x="-8"
     inkscape:window-y="-8"
     inkscape:window-maximized="1"
     inkscape:current-layer="svg2" /><metadata
     id="metadata8"><rdf:RDF><cc:Work
         rdf:about=""><dc:format>image/svg+xml</dc:format><dc:type
           rdf:resource="http://purl.org/dc/dcmitype/StillImage" /></cc:Work></rdf:RDF></metadata><defs
     id="defs6" /><path
     d="m 236.20763,57.296891 c 0,-3.655877 -2.59459,-6.337927 -6.17464,-6.337927 -3.57436,0 -6.1749,2.68205 -6.1749,6.337927 0,3.655876 2.60054,6.334643 6.1749,6.334643 3.58005,0 6.17464,-2.678767 6.17464,-6.334643 l 0,0 z m -7.79569,0.323016 0,4.145775 -1.34103,0 0,-9.142677 3.32931,0 c 1.94734,0 2.84533,0.85471 2.84533,2.518752 0,1.018307 -0.69379,1.830923 -1.58582,1.947651 l 0,0.04418 c 0.76963,0.1224 1.05531,0.812914 1.21862,2.072439 0.12228,0.810527 0.28569,2.233052 0.5714,2.559651 l -1.58613,0 c -0.3672,-0.853515 -0.32629,-2.072439 -0.612,-3.086866 -0.23912,-0.773209 -0.64723,-1.058908 -1.53954,-1.058908 l -1.30014,0 0,0 z m 1.66165,-1.177726 c 1.30043,0 1.66763,-0.690515 1.66763,-1.300424 0,-0.728728 -0.3672,-1.296544 -1.66763,-1.296544 l -1.66165,0 0,2.596968 1.66165,0 0,0 z m -7.67895,0.85471 c 0,-4.510586 3.58005,-7.556553 7.63835,-7.556553 4.06399,0 7.63807,3.045967 7.63807,7.556553 0,4.50969 -3.57408,7.556851 -7.63807,7.556851 -4.0583,0 -7.63835,-3.047161 -7.63835,-7.556851 l 0,0"
     inkscape:connector-curvature="0"
     id="path14"
     style="fill:#f36717;fill-opacity:1;fill-rule:nonzero;stroke:none" /><path
     d="m 195.92851,63.538092 -8.80682,-9.877374 -8.72622,9.877374 -18.3576,0 17.94711,-20.164937 -17.94711,-20.168819 18.93467,0 8.88981,9.795576 8.55964,-9.795576 18.27579,0 -17.86202,20.085826 18.10713,20.24793 -19.01438,0"
     inkscape:connector-curvature="0"
     id="path16"
     style="fill:#f36717;fill-opacity:1;fill-rule:nonzero;stroke:none" /><path
     d="m 124.76968,63.538092 0,-63.538092 35.26819,0 0,14.163163 -20.32973,0 0,9.041173 20.32973,0 0,13.626394 -20.32973,0 0,12.507181 20.32973,0 0,14.200181 -35.26819,0"
     inkscape:connector-curvature="0"
     id="path18"
     style="fill:#f36717;fill-opacity:1;fill-rule:nonzero;stroke:none" /><path
     d="m 109.89302,0 0,26.003115 -0.16329,0 c -3.29435,-3.785441 -7.40967,-5.101987 -12.184167,-5.101987 -9.78035,0 -17.148227,6.649599 -19.733552,15.440003 -2.950435,-9.685117 -10.557142,-15.620617 -21.835249,-15.620617 -9.159991,0 -16.391437,4.110547 -20.167325,10.8103 l 0,-8.326478 -18.932579,0 0,-9.041173 20.662,0 L 37.538858,0 0,0 l 0,63.538092 16.876858,0 0,-26.707362 16.821628,0 c -0.501242,1.961683 -0.769626,4.06308 -0.769626,6.280011 0,13.253224 10.125756,22.553228 23.047902,22.553228 10.865231,0 18.027716,-5.101688 21.814351,-14.401991 l -14.462893,0 c -1.956619,2.795495 -3.440046,3.623336 -7.351469,3.623336 -4.535066,0 -8.44649,-3.955607 -8.44649,-8.647106 l 29.450314,0 c 1.27684,10.528183 9.47853,19.606674 20.731858,19.606674 4.853607,0 9.300007,-2.387096 12.017287,-6.419726 l 0.16328,0 0,4.112936 14.87667,0 L 124.76967,0 109.893,0 z M 48.000456,37.019704 c 0.938598,-4.034719 4.068454,-6.672587 7.976295,-6.672587 4.301909,0 7.272345,2.556069 8.053615,6.672587 0.329883,0 -16.02991,0 -16.02991,0 z m 52.863024,16.845213 c -5.483213,0 -8.891901,-5.110047 -8.891901,-10.445191 0,-5.702641 2.965361,-11.187053 8.891901,-11.187053 6.14687,0 8.59457,5.484412 8.59457,11.187053 0,5.407389 -2.59488,10.445191 -8.59457,10.445191"
     inkscape:connector-curvature="0"
     id="path20"
     style="fill:#412c91;fill-opacity:1;fill-rule:nonzero;stroke:none" /><path
     d="m 124.77326,95.307735 0,-22.76907 12.57913,0 0,1.69897 -10.50341,0 0,8.393947 10.06038,0 0,1.699269 -10.06038,0 0,9.274331 10.9736,0 0,1.702553 -13.04932,0"
     inkscape:connector-curvature="0"
     id="path22"
     style="fill:#412c91;fill-opacity:1;fill-rule:nonzero;stroke:none" /><path
     d="m 139.32333,95.307735 6.13402,-8.178105 -5.81907,-7.733884 2.35904,0 4.74852,6.320314 4.65298,-6.320314 2.35904,0 -5.91222,7.733884 6.16299,8.178105 -2.38829,0 -5.09602,-6.76364 -4.84196,6.76364 -2.35903,0"
     inkscape:connector-curvature="0"
     id="path24"
     style="fill:#412c91;fill-opacity:1;fill-rule:nonzero;stroke:none" /><path
     d="m 158.00275,101.27846 -1.9184,0 0,-17.134194 c 0,-1.574481 0,-3.174337 -0.0967,-4.74852 l 1.88913,0 0.0642,2.390381 c 1.19295,-1.889138 2.76385,-2.767133 5.12527,-2.767133 4.90376,0 7.00874,4.055915 7.00874,8.329761 0,4.279818 -2.10498,8.334538 -7.00874,8.334538 -2.20409,0 -3.93232,-0.847843 -5.06347,-2.672796 l 0,8.267963 z m 10.03142,-13.929705 c 0,-3.393463 -1.41686,-6.728711 -5.18946,-6.728711 -3.55318,0 -4.84196,2.927149 -4.84196,6.728711 0,3.807533 1.28878,6.728711 4.84196,6.728711 3.7726,0 5.18946,-3.329277 5.18946,-6.728711"
     inkscape:connector-curvature="0"
     id="path26"
     style="fill:#412c91;fill-opacity:1;fill-rule:nonzero;stroke:none" /><path
     d="m 179.94069,80.870815 c -3.17792,0 -4.27982,2.676378 -4.27982,5.440228 l 0,8.996692 -1.91839,0 0,-11.230043 c 0,-1.539253 -0.0293,-3.107763 -0.0934,-4.681946 l 1.88914,0 0.12268,2.293655 c 0.94457,-1.82137 2.51876,-2.670407 4.62374,-2.670407 0.28211,0 0.59826,0.02926 0.88038,0.06181 l 0,1.918394 c -0.43974,-0.0642 -0.78724,-0.128382 -1.2243,-0.128382"
     inkscape:connector-curvature="0"
     id="path28"
     style="fill:#412c91;fill-opacity:1;fill-rule:nonzero;stroke:none" /><path
     d="m 183.51477,87.695057 c 0,3.583631 1.69688,6.540037 5.18707,6.540037 2.70205,0 3.96158,-1.790323 4.43386,-3.583631 l 1.82495,0 c -0.85142,3.33286 -2.89431,5.03183 -6.50958,5.03183 -4.84286,0 -6.98277,-3.586018 -6.98277,-8.048838 0,-4.559546 2.23305,-8.615461 7.23354,-8.615461 5.06347,0 6.41614,4.431473 6.41614,8.676063 l -11.60321,0 z m 0.0618,-1.445811 9.49495,0 c 0,-3.113734 -1.47506,-5.786531 -4.49566,-5.786531 -2.73459,0 -4.62373,2.075724 -4.99929,5.786531"
     inkscape:connector-curvature="0"
     id="path30"
     style="fill:#412c91;fill-opacity:1;fill-rule:nonzero;stroke:none" /><path
     d="m 202.60498,95.683293 c -3.26778,0 -5.72026,-1.541641 -5.72026,-5.03183 l 1.91838,0 c 0,2.388291 1.5721,3.583631 3.8986,3.583631 2.16886,0 3.86454,-1.038011 3.86454,-3.171949 0,-1.918395 -1.97898,-2.425608 -4.05469,-3.020591 -2.51311,-0.722757 -5.25127,-1.509997 -5.25127,-4.592087 0,-3.425107 2.86056,-4.431473 5.53695,-4.431473 3.0788,0 5.37605,1.192951 5.46919,4.49327 l -1.91808,0 c -0.0934,-1.883466 -1.44612,-2.954017 -3.49049,-2.954017 -1.60345,0 -3.55318,0.627524 -3.55318,2.703247 0,1.889138 1.94973,2.422025 4.02307,2.987752 2.51905,0.69141 5.2829,1.445811 5.2829,4.528199 0,3.585721 -2.76385,4.905848 -6.00566,4.905848"
     inkscape:connector-curvature="0"
     id="path32"
     style="fill:#412c91;fill-opacity:1;fill-rule:nonzero;stroke:none" /><path
     d="m 215.90716,95.683293 c -3.27108,0 -5.72235,-1.541641 -5.72235,-5.03183 l 1.9184,0 c 0,2.388291 1.57209,3.583631 3.90067,3.583631 2.16917,0 3.86605,-1.038011 3.86605,-3.171949 0,-1.918395 -1.98257,-2.425608 -4.0583,-3.020591 -2.51308,-0.722757 -5.24767,-1.509997 -5.24767,-4.592087 0,-3.425107 2.86057,-4.431473 5.53338,-4.431473 3.07851,0 5.37604,1.192951 5.46918,4.49327 l -1.91839,0 c -0.0931,-1.883466 -1.44582,-2.954017 -3.4902,-2.954017 -1.60223,0 -3.55318,0.627524 -3.55318,2.703247 0,1.889138 1.95092,2.422025 4.02546,2.987752 2.51667,0.69141 5.28379,1.445811 5.28379,4.528199 0,3.585721 -2.76712,4.905848 -6.00684,4.905848"
     inkscape:connector-curvature="0"
     id="path34"
     style="fill:#412c91;fill-opacity:1;fill-rule:nonzero;stroke:none" /></svg>